<?xml version="1.0" encoding="UTF-8"?><svg id="_图层_2" xmlns="http://www.w3.org/2000/svg" xmlns:xlink="http://www.w3.org/1999/xlink" viewBox="0 0 400.94 101.01"><defs><style>.cls-1{fill:url(#_未命名的渐变_11);}.cls-1,.cls-2,.cls-3,.cls-4,.cls-5,.cls-6,.cls-7,.cls-8{stroke-width:0px;}.cls-2{fill:url(#_未命名的渐变_16);}.cls-9{fill:#282828;stroke:#fff;stroke-miterlimit:10;stroke-width:.32px;}.cls-3{fill:url(#_未命名的渐变_11-2);}.cls-4{fill:url(#_未命名的渐变_11-3);}.cls-5{fill:url(#_未命名的渐变_11-4);}.cls-6{fill:url(#_未命名的渐变_16-3);}.cls-7{fill:url(#_未命名的渐变_16-2);}.cls-8{fill:#2467c9;}</style><linearGradient id="_未命名的渐变_11" x1="74.54" y1="62.93" x2="43.2" y2="98.51" gradientUnits="userSpaceOnUse"><stop offset="0" stop-color="#35b537"/><stop offset="1" stop-color="#6f6"/></linearGradient><linearGradient id="_未命名的渐变_16" x1="34.02" y1="67.14" x2="35.24" y2="91.24" gradientTransform="translate(49.34 -33.35) rotate(1.12)" gradientUnits="userSpaceOnUse"><stop offset="0" stop-color="#00337c"/><stop offset="1" stop-color="#0066e0"/></linearGradient><linearGradient id="_未命名的渐变_11-2" x1="48.8" y1="20.24" x2="105.27" y2="38.31" xlink:href="#_未命名的渐变_11"/><linearGradient id="_未命名的渐变_16-2" x1="-23.15" y1="63.31" x2="-9.27" y2="55.04" xlink:href="#_未命名的渐变_16"/><linearGradient id="_未命名的渐变_11-3" x1="20.15" y1="66.07" x2="20.15" y2="8.75" xlink:href="#_未命名的渐变_11"/><linearGradient id="_未命名的渐变_16-3" x1="1.97" y1="118.23" x2="-25.78" y2="103.38" xlink:href="#_未命名的渐变_16"/><linearGradient id="_未命名的渐变_11-4" x1="68.06" y1="57.23" x2="36.72" y2="92.8" xlink:href="#_未命名的渐变_11"/></defs><g id="_图层_1-2"><path class="cls-9" d="M175.17,18.6h11.53v2.75h6.18v7.75h-6.18v15.85h7.48v8.1h-9.88c.59,1.42,1.69,2.4,3.29,2.95,1.6.55,4.02.85,7.27.89v8.99c-2.2,0-4.16-.11-5.9-.34-1.74-.23-3.34-.55-4.8-.96v2.13h-14.55v3.84h23.88v8.37h-59.29v-8.37h23.88v-3.84h-14.48v-2.2c-1.46.41-3.08.73-4.84.96-1.76.23-3.74.34-5.94.34v-8.92c1.74,0,3.21-.07,4.43-.21,1.21-.14,2.23-.37,3.05-.69s1.48-.72,1.96-1.2.86-1.06,1.13-1.75h-9.88v-8.1h7.55v-15.85h-5.9v-7.75h5.9v-2.75h11.53v2.75h22.58v-2.75ZM158.08,54.62h11.53v4.25h5.83c-.64-.87-1.13-1.79-1.48-2.78-.34-.98-.63-2-.86-3.05h-18.6c-.23,1.05-.51,2.07-.86,3.05-.34.98-.84,1.91-1.48,2.78h5.9v-4.25ZM152.59,31.64h22.58v-2.54h-22.58v2.54ZM152.59,38.36h22.58v-2.61h-22.58v2.61ZM152.59,44.95h22.58v-2.54h-22.58v2.54Z"/><path class="cls-9" d="M213.73,78.91v-18.6c-1.92,1.33-3.88,2.36-5.87,3.09-1.99.73-3.95,1.1-5.87,1.1v-13.31c2.2,0,4.31-.59,6.35-1.78,2.03-1.19,3.86-2.77,5.49-4.73,1.62-1.97,2.98-4.21,4.08-6.72,1.1-2.52,1.81-5.08,2.13-7.69h-16.61v-10.43h59.15v10.43h-29.23c-.23,1.65-.62,3.34-1.17,5.08-.55,1.74-1.21,3.48-1.99,5.21h28.06v38.36h-44.53ZM225.19,68.76h21.61v-18.05h-21.61v18.05Z"/><path class="cls-9" d="M286.67,18.6v1.06c0,.34-.02.7-.07,1.06h15.23v7.14h-8.65v3.84h9.47v7.14h-10.22c-1.19,4.25-3.69,7.45-7.51,9.57-3.82,2.13-8.64,3.19-14.44,3.19v-8.37c2.65,0,4.87-.39,6.66-1.17,1.78-.78,3.16-1.85,4.12-3.23h-10.02v-7.14h11.67v-3.43c-1.28.92-2.94,1.57-4.97,1.96-2.04.39-4.52.58-7.44.58v-7.69c2.01,0,3.4-.29,4.15-.86.75-.57,1.13-1.79,1.13-3.67h10.91ZM275.76,52.22h51.53v26.83h-51.53v-26.83ZM286.67,63.27h29.78v-3.91h-29.78v3.91ZM286.67,71.92h29.78v-3.91h-29.78v3.91ZM293.6,39.18c.96,1.51,2.24,2.52,3.84,3.02,1.6.5,3.36.75,5.28.75v8.3c-2.79,0-5.28-.35-7.48-1.06-2.2-.71-4.09-1.98-5.7-3.81,2.15-2.01,3.5-4.41,4.05-7.21ZM304.17,21.21h27.31v29.3h-27.31v-29.3ZM314.46,43.03h6.72v-14.34h-6.72v14.34Z"/><path class="cls-9" d="M342.46,33.49h54.48v24.91h-7.21v2.74h10.98v7.69h-10.98v10.57h-12.42v-10.57h-14.27c-.37,2.06-1.1,3.75-2.2,5.08-1.1,1.33-2.56,2.37-4.39,3.12-1.83.75-4.06,1.28-6.69,1.58-2.63.3-5.66.45-9.09.45v-7.14c3.06,0,5.41-.21,7.03-.62,1.62-.41,2.76-1.24,3.4-2.47h-12.49v-7.69h13.24v-2.74h-9.4v-24.91ZM355.36,18.6v1.24c0,.41-.02.8-.07,1.17h14.41v6.24h-5.15l.07,4.39h-9.33l-.07-4.39h-1.72c-1.05,1.74-2.7,3.07-4.94,3.98-2.24.92-5.33,1.37-9.26,1.37v-7.55c1.19,0,2.1-.11,2.74-.34.64-.23,1.1-.59,1.37-1.1.27-.5.42-1.17.45-1.99.02-.82.03-1.83.03-3.02h11.46ZM353.99,41.17h31.43v-2.13h-31.43v2.13ZM353.99,46.94h31.43v-2.06h-31.43v2.06ZM353.99,52.77h31.43v-2.06h-31.43v2.06ZM363.32,61.14h14v-2.74h-14v2.74ZM383.22,18.6v1.24c0,.41-.02.8-.07,1.17h17.63v7.07h-6.18l.07,4.12h-9.95l-.07-4.12h-3.02c-.96,1.6-2.57,2.68-4.84,3.22-2.26.55-5.55.82-9.85.82v-4.12c1.24,0,2.18-.14,2.85-.41.66-.27,1.13-.78,1.41-1.51.27-.73.43-1.7.48-2.92.04-1.21.07-2.73.07-4.56h11.46Z"/><path class="cls-8" d="M45.81,82.06l12.44-6.2c-6.16-7.01-13.9-12.66-22.85-15.88C24.09,55.95,11.52,55.78,0,59.22l11.27,22.63c3.92-2.18,8.33-3.53,12.78-4.12,4.19-.52,8.56-.24,12.68.79,3.22.82,6.21,2.02,9.08,3.55Z"/><path class="cls-1" d="M76.84,57.33l-.85,13.88c-2.76,1.72-5.3,3.71-7.61,6.09-2.96,3.05-5.38,6.69-7.02,10.59-1.72,4.14-2.75,8.64-2.82,13.12l-25.23-1.55c1.64-6.88,4.54-13.45,8.51-19.28,1.37.55,2.7,1.17,4.01,1.87l12.44-6.2c-2.07-2.36-4.31-4.56-6.73-6.56.04-.03.09-.07.14-.11,7.26-6.15,16.03-10.02,25.18-11.86Z"/><path class="cls-2" d="M81.67,39.66l-11.59-7.68c-2.98,8.84-4.02,18.37-2.33,27.73,2.17,11.81,8.3,22.78,17.04,31.04l13.96-21.08c-3.85-2.3-7.23-5.45-9.96-9.01-2.54-3.37-4.49-7.29-5.66-11.37-.9-3.19-1.36-6.39-1.47-9.64Z"/><path class="cls-3" d="M57.19,18.95l-12.44,6.2c6.16,7.01,13.9,12.66,22.85,15.88,11.31,4.03,23.88,4.2,35.4.77l-11.27-22.63c-3.92,2.18-8.33,3.53-12.78,4.12-4.19.52-8.56.24-12.68-.79-3.22-.82-6.21-2.02-9.08-3.55Z"/><path class="cls-7" d="M27.02,29.81l-.85,13.87c9.15-1.84,17.92-5.7,25.18-11.85,9.14-7.78,15.58-18.58,18.36-30.27l-25.23-1.55c-.07,4.48-1.1,8.98-2.82,13.13-1.65,3.89-4.07,7.53-7.02,10.58-2.32,2.38-4.86,4.37-7.61,6.09Z"/><path class="cls-4" d="M21.33,61.36l11.59,7.68c2.98-8.84,4.02-18.37,2.33-27.73-2.17-11.81-8.3-22.78-17.04-31.04L4.25,31.34c3.85,2.3,7.23,5.45,9.96,9.01,2.54,3.37,4.49,7.29,5.66,11.37.9,3.19,1.36,6.39,1.47,9.64Z"/><path class="cls-6" d="M51.52,69.3c-3.71,3.18-6.96,6.85-9.72,10.88-1.64-.67-3.32-1.23-5.08-1.68-4.11-1.03-8.48-1.3-12.67-.79-4.45.59-8.87,1.94-12.78,4.12L0,59.22c11.52-3.43,24.09-3.26,35.4.77,5.95,2.13,11.36,5.35,16.13,9.32Z"/><path class="cls-5" d="M58.25,75.86l-12.44,6.2c-1.31-.7-2.64-1.32-4.01-1.87,2.75-4.03,6.01-7.7,9.72-10.88,2.42,2,4.66,4.2,6.73,6.56Z"/></g></svg>